<svg xmlns="http://www.w3.org/2000/svg" width="16.219" height="30" viewBox="0 0 16.219 30">
  <path id="Facebook_Logo" data-name="Facebook Logo" d="M114.609,1082.01l-3.891-.01c-4.37,0-7.195,2.9-7.195,7.38v3.41H99.612a.609.609,0,0,0-.612.61v4.93a.609.609,0,0,0,.612.61h3.911v12.45a.609.609,0,0,0,.612.61h5.1a.609.609,0,0,0,.612-.61v-12.45h4.574a.608.608,0,0,0,.611-.61l0-4.93a.6.6,0,0,0-.179-.43.593.593,0,0,0-.433-.18H109.85v-2.89c0-1.39.331-2.09,2.137-2.09h2.621a.608.608,0,0,0,.611-.61v-4.58A.608.608,0,0,0,114.609,1082.01Z" transform="translate(-99 -1082)" fill="#679afa"/>
</svg>
