<svg xmlns="http://www.w3.org/2000/svg" width="24" height="24" viewBox="0 0 24 24"><g transform="translate(-60 -290)"><rect width="24" height="24" transform="translate(60 290)" fill="#c4c4c4" opacity="0"/><path d="M10.184,11H5.816A5.816,5.816,0,0,0,0,16.816a.684.684,0,0,0,.684.684H15.316A.684.684,0,0,0,16,16.816,5.816,5.816,0,0,0,10.184,11Z" transform="translate(64 293)" fill="none" stroke="#e6e6f2" stroke-width="1.3"/><path d="M12,4A4,4,0,1,1,8,0,4,4,0,0,1,12,4Z" transform="translate(64 293)" fill="none" stroke="#e6e6f2" stroke-width="1.3"/></g></svg>