<svg xmlns="http://www.w3.org/2000/svg" width="24" height="24" viewBox="0 0 24 24">
  <g id="icon-lock" transform="translate(-60 -426)">
    <rect id="Rectangle_227" data-name="Rectangle 227" width="24" height="24" transform="translate(60 426)" fill="#c4c4c4" opacity="0"/>
    <g id="Group_313" data-name="Group 313">
      <g id="Union" fill="none">
        <path d="M65.15,447.409a1.5,1.5,0,0,1-1.5-1.5v-8.455a1.5,1.5,0,0,1,1.5-1.5h2.58v-2.642a4.663,4.663,0,0,1,9.327,0v2.642h1.88a1.5,1.5,0,0,1,1.5,1.5v8.455a1.5,1.5,0,0,1-1.5,1.5Z" stroke="none"/>
        <path d="M 78.93749237060547 445.9095153808594 L 78.93720245361328 437.4546203613281 L 75.55709838867188 437.4546203613281 L 75.55709838867188 433.3131103515625 C 75.55709838867188 431.569091796875 74.13782501220703 430.1502075195312 72.39330291748047 430.1502075195312 C 70.64927673339844 430.1502075195312 69.23039245605469 431.569091796875 69.23039245605469 433.3131103515625 L 69.23039245605469 437.4546203613281 L 65.14980316162109 437.4549255371094 L 65.15010833740234 445.9089050292969 L 78.93749237060547 445.9095153808594 M 78.93720245361328 447.4089050292969 L 65.15010833740234 447.4089050292969 C 64.32120513916016 447.4089050292969 63.64980697631836 446.7375183105469 63.64980697631836 445.9095153808594 L 63.64980697631836 437.4549255371094 C 63.64980697631836 436.6260070800781 64.32120513916016 435.9546203613281 65.15010833740234 435.9546203613281 L 67.73039245605469 435.9546203613281 L 67.73039245605469 433.3131103515625 C 67.73039245605469 430.7382202148438 69.81840515136719 428.6502075195312 72.39330291748047 428.6502075195312 C 74.96910858154297 428.6502075195312 77.05709838867188 430.7382202148438 77.05709838867188 433.3131103515625 L 77.05709838867188 435.9546203613281 L 78.93720245361328 435.9546203613281 C 79.76610565185547 435.9546203613281 80.43749237060547 436.6260070800781 80.43749237060547 437.4549255371094 L 80.43749237060547 445.9095153808594 C 80.43749237060547 446.7375183105469 79.76610565185547 447.4089050292969 78.93720245361328 447.4089050292969 Z" stroke="none" fill="#e6e6f2"/>
      </g>
      <rect id="Rectangle_406" data-name="Rectangle 406" width="16.788" height="11.454" rx="1.5" transform="translate(63.65 435.955)" fill="#fff" stroke="#e6e6f2" stroke-width="1.3"/>
    </g>
  </g>
</svg>
